# xmcd CD database file
#
# Track frame offsets:
#	150
#	19055
#	42527
#	58280
#	72957
#	91685
#	111362
#	131150
#	158145
#	174690
#	199077
#	219412
#	239375
#	258977
#
# Disc length: 3771 seconds
#
# Revision: 2
# Processed by: cddbd v1.4PL0 Copyright (c) Steve Scherf et al.
# Submitted via: CDex 1.40Release
#
DISCID=cd0eb90e
DTITLE=Nedra Johnson - Testify
DYEAR=1900
DGENRE=Blues
TTITLE0=Testify!
TTITLE1=Hail Mary
TTITLE2=About A Girl
TTITLE3=Get Over It
TTITLE4=Are You Getting Angry Yet?
TTITLE5=Working Hard For The Joneses
TTITLE6=Get It and Feel Good
TTITLE7=Where Will You Be?
TTITLE8=Jubilee!!!
TTITLE9=Love Is Not Concerned
TTITLE10=Testify [Funky Acoustic]
TTITLE11=Primary Lover Blues
TTITLE12=One Thing In Common [Ronaloka's Blues]
TTITLE13=Affirmations
EXTD=http://members.aol.com/bmgnedra ID3G: 0
EXTT0=
EXTT1=
EXTT2=
EXTT3=
EXTT4=
EXTT5=
EXTT6=
EXTT7=
EXTT8=
EXTT9=
EXTT10=
EXTT11=
EXTT12=
EXTT13=
PLAYORDER=
